<svg xmlns="http://www.w3.org/2000/svg" viewBox="0 0 600 300"><g><text x="50%" y="0" style="fill: rgb(54, 58, 61); dominant-baseline: text-before-edge; text-anchor: middle; font-weight: bold; font-size: 13px; font-family: sans-serif;">train_loss</text></g><g transform="translate(0, 22)"><svg class="rv-xy-plot__inner" width="600" height="278"><g transform="translate(32,5)" class="rv-xy-plot__grid-lines"><line y1="243" y2="243" x1="0" x2="548" class="rv-xy-plot__grid-lines__line" style="stroke-width: 0.5;"/><line y1="187.9483157428513" y2="187.9483157428513" x1="0" x2="548" class="rv-xy-plot__grid-lines__line" style="stroke-width: 0.5;"/><line y1="132.89663148570258" y2="132.89663148570258" x1="0" x2="548" class="rv-xy-plot__grid-lines__line" style="stroke-width: 0.5;"/><line y1="77.84494722855383" y2="77.84494722855383" x1="0" x2="548" class="rv-xy-plot__grid-lines__line" style="stroke-width: 0.5;"/><line y1="22.793262971405117" y2="22.793262971405117" x1="0" x2="548" class="rv-xy-plot__grid-lines__line" style="stroke-width: 0.5;"/></g><path d="M0,232.90948727975888L1.696594427244582,231.6359456189437L3.393188854489164,231.85857245946266L5.089783281733746,229.46882264040877L6.786377708978328,231.25503631345265L8.48297213622291,230.0483184057298L10.179566563467493,228.86543743585867L11.876160990712075,229.12984487247348L13.572755417956657,232.45946909872637L15.269349845201237,233.86148622378983L16.96594427244582,227.15834333848264L18.6625386996904,232.77359271462367L20.359133126934985,234.37365684786482L22.055727554179565,229.74286145469867L23.75232198142415,230.5293911514654L25.448916408668733,230.45900124231656L27.145510835913313,234.0092283809915L28.842105263157894,233.12071607125495L30.538699690402474,234.6197491789908L32.23529411764706,235.52128248657758L33.93188854489164,233.7621949626765L35.628482972136226,231.9535763268481L37.3250773993808,235.6846969611857L39.021671826625386,234.77081007950827L40.71826625386997,235.03582390703153L42.414860681114554,233.35986903282958L44.11145510835913,221.29756077088444L45.808049535603715,222.28276617982263L47.5046439628483,222.30659786753665L49.201238390092875,230.8799979744839L50.897832817337466,221.83602277220237L52.59442724458204,222.11750759433502L54.29102167182663,179.1483918806512L55.98761609907121,213.23321533126642L57.68421052631579,213.208846816969L59.38080495356037,214.5052344521384L61.07739938080495,212.6136203264592L62.77399380804954,215.78052440881936L64.47058823529412,213.16108368892392L66.1671826625387,217.5351991919541L67.86377708978328,216.84361429852325L69.56037151702786,209.33022356296382L71.25696594427245,212.20002760103276L72.95356037151703,213.55357348572417L74.6501547987616,216.14206726874008L76.3467492260062,217.87769980230962L78.04334365325077,215.771058410483L79.73993808049535,213.56540992124792L81.43653250773994,218.38462160118397L83.13312693498452,214.42388094286426L84.82972136222911,211.5015414015491L86.52631578947368,123.41447322537783L88.22291021671826,209.98325669500588L89.91950464396285,203.2705644654258L91.61609907120743,205.31286279423998L93.312693498452,216.87508887424517L95.0092879256966,195.70659652799532L96.70588235294119,199.9495504650585L98.40247678018575,199.84503072302823L100.09907120743034,202.4859445062602L101.79566563467493,212.92762581425745L103.4922600619195,217.03453555726L105.18885448916409,197.64489487841502L106.88544891640868,182.9959553198155L108.58204334365325,192.19624418541844L110.27863777089783,193.72713184759476L111.97523219814242,187.7579562488522L113.671826625387,184.7082247404639L115.36842105263158,186.41404699197355L117.06501547987615,175.67083714850543L118.76160990712074,181.3718409618771L120.45820433436533,179.2732611565427L122.1547987616099,172.9876020049909L123.85139318885449,189.82826406248313L125.54798761609908,207.12988296297897L127.24458204334364,180.5340029815597L128.94117647058823,167.70149032613512L130.6377708978328,175.13642562845013L132.3343653250774,171.815587507697L134.030959752322,175.69359649558706L135.72755417956657,172.6652330477806L137.42414860681114,175.41657297799478L139.12074303405572,162.2256229191198L140.81733746130033,162.16495232745302L142.5139318885449,149.60576184251747L144.21052631578948,157.56859324395856L145.90712074303406,151.1700718815154L147.60371517027863,198.08463591483113L149.3003095975232,199.53583173632643L150.99690402476782,153.57231440330997L152.6934984520124,190.0575690782011L154.39009287925694,144.59742445095011L156.08668730650155,161.35867292506128L157.78328173374612,197.53367071049703L159.4798761609907,142.30794438742993L161.1764705882353,144.86341742916093L162.87306501547988,196.334308245741L164.5696594427245,158.69806062504728L166.26625386996903,167.59750609815381L167.9628482972136,158.4420586589463L169.65944272445822,159.49014890514104L171.3560371517028,168.12295563309533L173.05263157894737,157.32820518748179L174.74922600619195,151.03666588166664L176.44582043343652,161.15661612418845L178.1424148606811,173.4508636584602L179.8390092879257,179.7176433147166L181.53560371517028,166.10258712960064L183.23219814241486,162.87153686439305L184.92879256965944,159.50949566269486L186.625386996904,178.3266193218032L188.32198142414862,165.21010571573638L190.0185758513932,163.980486707213L191.71517027863777,162.0163261783102L193.41176470588238,153.09965500329486L195.10835913312692,164.34406399550605L196.8049535603715,167.29948202962115L198.5015479876161,162.81826371679503L200.19814241486068,167.3673505601227L201.89473684210526,161.2854440039322L203.59133126934987,148.67248685845155L205.2879256965944,151.00270799079604L206.984520123839,160.73247324698332L208.6811145510836,147.97480655511026L210.37770897832817,161.60831172422732L212.07430340557278,143.51448904060754L213.77089783281735,158.62779278160076L215.4674922600619,142.79707871965778L217.1640866873065,153.95658248441703L218.86068111455108,161.84520318897256L220.55727554179566,152.82934641186574L222.25386996904027,154.19483373483564L223.95046439628484,147.96607032591905L225.6470588235294,161.24832553014508L227.343653250774,148.39519558383478L229.04024767801857,158.994478151433L230.73684210526315,148.7703914269356L232.43343653250776,137.45152498136522L234.1300309597523,140.75175106137044L235.82662538699688,186.30148928907087L237.5232198142415,133.40205174518468L239.21981424148606,145.3001448865171L240.91640866873067,135.2805300262507L242.61300309597524,135.129840572978L244.3095975232198,201.59146541498774L246.0061919504644,146.960437943588L247.70278637770897,150.17121217686267L249.39938080495355,129.0068254383217L251.09597523219816,124.40967883416695L252.79256965944273,122.36637772904537L254.48916408668728,169.8133949810412L256.1857585139319,125.55757944884355L257.88235294117646,177.0107825513941L259.57894736842104,114.562320992989L261.2755417956656,135.1890936274563L262.9721362229102,132.08018256651795L264.6687306501548,112.09295021011353L266.3653250773994,138.15701748965637L268.061919504644,119.19737359159114L269.75851393188856,116.62444909202864L271.45510835913313,133.52047385193748L273.1517027863777,102.87388685196989L274.8482972136223,111.7921173178926L276.5448916408669,185.4456433363221L278.24148606811144,125.18305562337284L279.938080495356,105.58652801693873L281.63467492260065,99.40243277987231L283.3312693498452,165.5530814635569L285.0278637770898,106.68352329613586L286.7244582043344,94.77048826280937L288.42105263157896,116.78497730341692L290.11764705882354,118.3726924564379L291.8142414860681,109.1865474618933L293.5108359133127,99.88444792533137L295.20743034055727,124.15655919368254L296.9040247678019,114.6251651416781L298.6006191950464,109.461045663235L300.297213622291,113.80897872938026L301.99380804953563,93.50051144551631L303.69040247678015,112.39318458663269L305.3869969040248,116.37251598267238L307.08359133126936,81.25789376573151L308.7801857585139,114.9191728548434L310.4767801857585,115.94963838866143L312.1733746130031,116.59063820501466L313.86996904024767,101.32700727025247L315.56656346749224,113.4362609512904L317.2631578947369,72.30934900452635L318.9597523219814,119.65161550843155L320.656346749226,84.37278998368784L322.3529411764706,100.77734935021444L324.0495356037152,161.4633134202595L325.74613003095976,137.03962017522065L327.44272445820434,161.48892359213127L329.139318885449,123.50436608367814L330.8359133126935,116.89605971761604L332.53250773993807,95.25374244077392L334.2291021671827,79.628093508626L335.9256965944272,95.75002746059697L337.62229102167186,153.21905363566637L339.31888544891643,88.83606857587313L341.01547987616095,90.64404800743229L342.7120743034056,96.34182298609686L344.40866873065016,115.94168968013048L346.10526315789474,114.53293072194796L347.8018575851393,93.88117793213712L349.4984520123839,53.86895422873749L351.19504643962847,93.02526897773552L352.89164086687305,76.77575667880174L354.5882352941177,82.63462688372998L356.2848297213622,93.54216603830656L357.98142414860683,74.9781725199581L359.6780185758514,93.92955270122829L361.37461300309593,102.69319811167885L363.07120743034056,107.95846674372632L364.76780185758514,94.78854873661808L366.4643962848297,101.95456673400383L368.1609907120743,95.52367302228608L369.85758513931887,96.00967827242383L371.55417956656345,85.40609059188282L373.250773993808,91.23782808499607L374.94736842105266,147.901462130951L376.64396284829724,92.30666162538213L378.34055727554176,76.35278458231159L380.0371517027864,97.70506325011613L381.73374613003097,77.8340059415139L383.43034055727554,185.19465525175815L385.1269349845201,84.03477561602696L386.82352941176475,85.8234975423738L388.5201238390093,73.07782216508768L390.21671826625385,148.96357549503614L391.9133126934985,72.15655949615962L393.609907120743,92.22783605742742L395.30650154798764,183.71344964296904L397.0030959752322,89.92594466830148L398.69969040247673,72.23680260130281L400.39628482972137,146.05007456059803L402.09287925696594,90.8031901824585L403.7894736842105,90.10911147360348L405.4860681114551,60.13350257645647L407.18266253869973,72.17568049779084L408.87925696594425,70.99864161868445L410.5758513931888,84.7384305761108L412.27244582043346,74.42215143298513L413.969040247678,100.37219622119717L415.6656346749226,87.9014180557206L417.3622291021672,87.12665523015265L419.0588235294117,62.30804662467998L420.75541795665634,92.76470464194277L422.4520123839009,67.60427006881355L424.14860681114556,98.4053161209476L425.8452012383901,40.88950071838303L427.5417956656347,186.90664116496882L429.2383900928793,74.29656813836165L430.9349845201238,76.75793771132885L432.63157894736844,61.247182793375764L434.328173374613,94.43536147090279L436.0247678018576,115.37887491492832L437.72136222910217,161.53089319318562L439.41795665634675,67.2238345882531L441.1145510835913,100.11319642644946L442.8111455108359,101.04737443420585L444.50773993808053,103.26281705538571L446.20433436532505,97.38915196232L447.9009287925697,79.40018502954553L449.59752321981426,146.32398474651342L451.2941176470588,100.30345091769384L452.9907120743034,66.65371163132367L454.687306501548,160.25302541887672L456.38390092879257,86.19339074636217L458.08049535603715,191.76236755285248L459.7770897832817,100.86381911871145L461.4736842105263,93.88345649191415L463.1702786377709,80.68493573442512L464.8668730650155,65.46300139355509L466.56346749226003,42.942220570601386L468.2600619195046,94.13614562110425L469.95665634674924,59.63240843046809L471.65325077399376,83.95249545744255L473.3498452012384,68.78286298868952L475.046439628483,86.56767306549709L476.7430340557276,81.21909524786915L478.4396284829721,69.67220482018817L480.1362229102167,40.3167106914842L481.83281733746134,88.82320573842215L483.52941176470586,61.86029387808013L485.2260061919505,90.37113534768659L486.92260061919507,62.40376713586622L488.6191950464396,61.625150709200696L490.3157894736842,59.12646315721245L492.0123839009288,48.85969281292872L493.7089783281734,90.9975502814117L495.40557275541795,46.842589895105284L497.1021671826626,53.62835091661356L498.7987616099071,36.71209212587366L500.4953560371517,74.32436236753125L502.1919504643963,59.24677531354988L503.88854489164083,72.06029297064893L505.58513931888547,42.235384027050095L507.28173374613004,3.364204258445045L508.97832817337456,22.058537696204993L510.6749226006192,27.639140100897716L512.3715170278638,50.15857688859121L514.0681114551084,55.013547256641004L515.7647058823529,74.28357929760504L517.4613003095975,41.69571186898421L519.1578947368421,57.384404455055154L520.8544891640867,59.70236126565048L522.5510835913312,27.09058470978406L524.2476780185759,14.346505374369377L525.9442724458204,177.16832868454884L527.6408668730651,56.52243684170726L529.3374613003097,33.76390878155753L531.0340557275541,17.491715887608173L532.7306501547988,130.70182190582162L534.4272445820434,15.630143050049142L536.123839009288,11.669082133327576L537.8204334365325,25.738905249057463L539.5170278637771,0L541.2136222910217,63.047980036513295L542.9102167182663,61.07928338860741L544.6068111455108,17.651635083019162L546.3034055727554,19.1360590262399L548,24.390942885847323" class="rv-xy-plot__series rv-xy-plot__series--line" transform="translate(32,5)" style="opacity: 1; stroke-width: 1.5; stroke: rgb(51, 141, 216);"/><g class="rv-xy-plot__series rv-xy-plot__series--mark" transform="translate(32,5)"><circle r="2" cx="548" cy="24.390942885847323" style="opacity: 1; stroke: rgb(51, 141, 216); fill: rgb(51, 141, 216); stroke-width: 1;"/></g><defs class="rv-gradient-defs"><linearGradient id="leftFadeGradient" x1="0" x2="1" y1="0" y2="0"><stop offset="0%" stop-color="white" stop-opacity="1"/><stop offset="60%" stop-color="white" stop-opacity="1"/><stop offset="100%" stop-color="white" stop-opacity="0"/></linearGradient><linearGradient id="rightFadeGradient" x1="1" x2="0" y1="0" y2="0"><stop offset="0%" stop-color="white" stop-opacity="1"/><stop offset="100%" stop-color="white" stop-opacity="0"/></linearGradient><linearGradient id="bottomFadeGradient" x1="0" x2="0" y1="1" y2="0"><stop offset="0%" stop-color="white" stop-opacity="1"/><stop offset="40%" stop-color="white" stop-opacity="1"/><stop offset="100%" stop-color="white" stop-opacity="0"/></linearGradient><linearGradient id="topFadeGradient" x1="0" x2="0" y1="0" y2="1"><stop offset="0%" stop-color="white" stop-opacity="1"/><stop offset="100%" stop-color="white" stop-opacity="0"/></linearGradient></defs><g class="rv-xy-plot__borders plot-border"><rect class="rv-xy-plot__borders-bottom plot-border-bottom" x="0" y="248" width="600" height="30" style="fill: url(&quot;#bottomFadeGradient&quot;); opacity: 1;"/><rect class="rv-xy-plot__borders-left plot-border-left" x="0" y="0" width="32" height="278" style="fill: url(&quot;#leftFadeGradient&quot;); opacity: 1;"/><rect class="rv-xy-plot__borders-right plot-border-right" x="580" y="0" width="20" height="278" style="fill: url(&quot;#rightFadeGradient&quot;); opacity: 1;"/><rect class="rv-xy-plot__borders-top plot-border-top" x="0" y="0" width="600" height="5" style="fill: url(&quot;#topFadeGradient&quot;); opacity: 1;"/></g><g transform="translate(32,248)" class="rv-xy-plot__axis rv-xy-plot__axis--horizontal"><line x1="0" x2="548" y1="0" y2="0" class="rv-xy-plot__axis__line"/><g transform="translate(0, 0)" class="rv-xy-plot__axis__ticks"/></g><g transform="translate(32,248)" class="rv-xy-plot__axis rv-xy-plot__axis--horizontal" style="font-family: &quot;Source Sans Pro&quot;; fill: rgb(107, 107, 118); font-size: 11px;"><line x1="0" x2="548" y1="0" y2="0" class="rv-xy-plot__axis__line" style="font-family: &quot;Source Sans Pro&quot;; fill: rgb(107, 107, 118); font-size: 11px; stroke-width: 0;"/><g transform="translate(0, 0)" class="rv-xy-plot__axis__ticks"><g transform="translate(167.9967801857585, 0)" class="rv-xy-plot__axis__tick" style="font-family: &quot;Source Sans Pro&quot;; fill: rgb(107, 107, 118); font-size: 11px;"><line x1="0" x2="0" y1="-6" y2="6" class="rv-xy-plot__axis__tick__line" style="font-family: &quot;Source Sans Pro&quot;; fill: rgb(107, 107, 118); font-size: 11px; stroke-width: 0;"/><text text-anchor="middle" dy="0.72em" transform="translate(0, 14)" class="rv-xy-plot__axis__tick__text" style="font-family: sans-serif; fill: rgb(107, 107, 118); font-size: 11px;">5k</text></g><g transform="translate(337.65622291021674, 0)" class="rv-xy-plot__axis__tick" style="font-family: &quot;Source Sans Pro&quot;; fill: rgb(107, 107, 118); font-size: 11px;"><line x1="0" x2="0" y1="-6" y2="6" class="rv-xy-plot__axis__tick__line" style="font-family: &quot;Source Sans Pro&quot;; fill: rgb(107, 107, 118); font-size: 11px; stroke-width: 0;"/><text text-anchor="middle" dy="0.72em" transform="translate(0, 14)" class="rv-xy-plot__axis__tick__text" style="font-family: sans-serif; fill: rgb(107, 107, 118); font-size: 11px;">10k</text></g><g transform="translate(507.31566563467493, 0)" class="rv-xy-plot__axis__tick" style="font-family: &quot;Source Sans Pro&quot;; fill: rgb(107, 107, 118); font-size: 11px;"><line x1="0" x2="0" y1="-6" y2="6" class="rv-xy-plot__axis__tick__line" style="font-family: &quot;Source Sans Pro&quot;; fill: rgb(107, 107, 118); font-size: 11px; stroke-width: 0;"/><text text-anchor="middle" dy="0.72em" transform="translate(0, 14)" class="rv-xy-plot__axis__tick__text" style="font-family: sans-serif; fill: rgb(107, 107, 118); font-size: 11px;">15k</text></g></g><g transform="translate(0, 0)" class="rv-xy-plot__axis__title"><g transform="translate(542, -6) rotate(0)" style="text-anchor: end; font-family: &quot;Source Sans Pro&quot;; fill: rgb(107, 107, 118); font-size: 11px;"><text style="font-family: sans-serif; fill: rgb(107, 107, 118); font-size: 11px;">trainer/global_step</text></g></g></g><g transform="translate(32,248)" class="rv-xy-plot__axis rv-xy-plot__axis--horizontal"><line x1="0" x2="0" y1="0" y2="0" class="rv-xy-plot__axis__line"/><g transform="translate(0, 0)" class="rv-xy-plot__axis__ticks"><g transform="translate(167.9967801857585, 0)" class="rv-xy-plot__axis__tick"><line x1="0" x2="0" y1="-6" y2="6" class="rv-xy-plot__axis__tick__line"/><text text-anchor="middle" dy="0.72em" transform="translate(0, 14)" class="rv-xy-plot__axis__tick__text" style="font-family: sans-serif;"/></g><g transform="translate(337.65622291021674, 0)" class="rv-xy-plot__axis__tick"><line x1="0" x2="0" y1="-6" y2="6" class="rv-xy-plot__axis__tick__line"/><text text-anchor="middle" dy="0.72em" transform="translate(0, 14)" class="rv-xy-plot__axis__tick__text" style="font-family: sans-serif;"/></g><g transform="translate(507.31566563467493, 0)" class="rv-xy-plot__axis__tick"><line x1="0" x2="0" y1="-6" y2="6" class="rv-xy-plot__axis__tick__line"/><text text-anchor="middle" dy="0.72em" transform="translate(0, 14)" class="rv-xy-plot__axis__tick__text" style="font-family: sans-serif;"/></g></g></g><g transform="translate(0,5)" class="rv-xy-plot__axis rv-xy-plot__axis--vertical" style="font-family: &quot;Source Sans Pro&quot;; fill: rgb(107, 107, 118); font-size: 11px;"><line x1="32" x2="32" y1="0" y2="243" class="rv-xy-plot__axis__line" style="font-family: &quot;Source Sans Pro&quot;; fill: rgb(107, 107, 118); font-size: 11px; stroke: none;"/><g transform="translate(32, 0)" class="rv-xy-plot__axis__ticks"><g transform="translate(0, 243)" class="rv-xy-plot__axis__tick" style="font-family: &quot;Source Sans Pro&quot;; fill: rgb(107, 107, 118); font-size: 11px;"><line y1="0" y2="0" x1="6" x2="-6" class="rv-xy-plot__axis__tick__line" style="font-family: &quot;Source Sans Pro&quot;; fill: rgb(107, 107, 118); font-size: 11px; stroke: none;"/><text text-anchor="end" dy="0.32em" transform="translate(-14, 0)" class="rv-xy-plot__axis__tick__text" style="font-family: sans-serif; fill: rgb(107, 107, 118); font-size: 11px;">0</text></g><g transform="translate(0, 187.9483157428513)" class="rv-xy-plot__axis__tick" style="font-family: &quot;Source Sans Pro&quot;; fill: rgb(107, 107, 118); font-size: 11px;"><line y1="0" y2="0" x1="6" x2="-6" class="rv-xy-plot__axis__tick__line" style="font-family: &quot;Source Sans Pro&quot;; fill: rgb(107, 107, 118); font-size: 11px; stroke: none;"/><text text-anchor="end" dy="0.32em" transform="translate(-14, 0)" class="rv-xy-plot__axis__tick__text" style="font-family: sans-serif; fill: rgb(107, 107, 118); font-size: 11px;">5</text></g><g transform="translate(0, 132.89663148570258)" class="rv-xy-plot__axis__tick" style="font-family: &quot;Source Sans Pro&quot;; fill: rgb(107, 107, 118); font-size: 11px;"><line y1="0" y2="0" x1="6" x2="-6" class="rv-xy-plot__axis__tick__line" style="font-family: &quot;Source Sans Pro&quot;; fill: rgb(107, 107, 118); font-size: 11px; stroke: none;"/><text text-anchor="end" dy="0.32em" transform="translate(-14, 0)" class="rv-xy-plot__axis__tick__text" style="font-family: sans-serif; fill: rgb(107, 107, 118); font-size: 11px;">10</text></g><g transform="translate(0, 77.84494722855383)" class="rv-xy-plot__axis__tick" style="font-family: &quot;Source Sans Pro&quot;; fill: rgb(107, 107, 118); font-size: 11px;"><line y1="0" y2="0" x1="6" x2="-6" class="rv-xy-plot__axis__tick__line" style="font-family: &quot;Source Sans Pro&quot;; fill: rgb(107, 107, 118); font-size: 11px; stroke: none;"/><text text-anchor="end" dy="0.32em" transform="translate(-14, 0)" class="rv-xy-plot__axis__tick__text" style="font-family: sans-serif; fill: rgb(107, 107, 118); font-size: 11px;">15</text></g><g transform="translate(0, 22.793262971405117)" class="rv-xy-plot__axis__tick" style="font-family: &quot;Source Sans Pro&quot;; fill: rgb(107, 107, 118); font-size: 11px;"><line y1="0" y2="0" x1="6" x2="-6" class="rv-xy-plot__axis__tick__line" style="font-family: &quot;Source Sans Pro&quot;; fill: rgb(107, 107, 118); font-size: 11px; stroke: none;"/><text text-anchor="end" dy="0.32em" transform="translate(-14, 0)" class="rv-xy-plot__axis__tick__text" style="font-family: sans-serif; fill: rgb(107, 107, 118); font-size: 11px;">20</text></g></g></g></svg></g><style xmlns="http://www.w3.org/1999/xhtml">/*&lt;![CDATA[*/<br />text { font-size: 10px; fill: black }<br />.react-vis-magic-css-import-rule{display:inherit}.rv-treemap{font-size:12px;position:relative}.rv-treemap__leaf{overflow:hidden;position:absolute}.rv-treemap__leaf--circle{align-items:center;border-radius:100%;display:flex;justify-content:center}.rv-treemap__leaf__content{overflow:hidden;padding:10px;text-overflow:ellipsis}.rv-xy-plot{color:#c3c3c3;position:relative}.rv-xy-plot canvas{pointer-events:none}.rv-xy-plot .rv-xy-canvas{pointer-events:none;position:absolute}.rv-xy-plot__inner{display:block}.rv-xy-plot__axis__line{fill:none;stroke-width:2px;stroke:#e6e6e9}.rv-xy-plot__axis__tick__line{stroke:#e6e6e9}.rv-xy-plot__axis__tick__text{fill:#6b6b76;font-size:11px}.rv-xy-plot__axis__title text{fill:#6b6b76;font-size:11px}.rv-xy-plot__grid-lines__line{stroke:#e6e6e9}.rv-xy-plot__circular-grid-lines__line{fill-opacity:0;stroke:#e6e6e9}.rv-xy-plot__series,.rv-xy-plot__series path{pointer-events:all}.rv-xy-plot__series--line{fill:none;stroke:#000;stroke-width:2px}.rv-crosshair{position:absolute;font-size:11px;pointer-events:none}.rv-crosshair__line{background:#47d3d9;width:1px}.rv-crosshair__inner{position:absolute;text-align:left;top:0}.rv-crosshair__inner__content{border-radius:4px;background:#3a3a48;color:#fff;font-size:12px;padding:7px 10px;box-shadow:0 2px 4px rgba(0,0,0,0.5)}.rv-crosshair__inner--left{right:4px}.rv-crosshair__inner--right{left:4px}.rv-crosshair__title{font-weight:bold;white-space:nowrap}.rv-crosshair__item{white-space:nowrap}.rv-hint{position:absolute;pointer-events:none}.rv-hint__content{border-radius:4px;padding:7px 10px;font-size:12px;background:#3a3a48;box-shadow:0 2px 4px rgba(0,0,0,0.5);color:#fff;text-align:left;white-space:nowrap}.rv-discrete-color-legend{box-sizing:border-box;overflow-y:auto;font-size:12px}.rv-discrete-color-legend.horizontal{white-space:nowrap}.rv-discrete-color-legend-item{color:#3a3a48;border-radius:1px;padding:9px 10px}.rv-discrete-color-legend-item.horizontal{display:inline-block}.rv-discrete-color-legend-item.horizontal .rv-discrete-color-legend-item__title{margin-left:0;display:block}.rv-discrete-color-legend-item__color{display:inline-block;vertical-align:middle;overflow:visible}.rv-discrete-color-legend-item__color__path{stroke:#dcdcdc;stroke-width:2px}.rv-discrete-color-legend-item__title{margin-left:10px}.rv-discrete-color-legend-item.disabled{color:#b8b8b8}.rv-discrete-color-legend-item.clickable{cursor:pointer}.rv-discrete-color-legend-item.clickable:hover{background:#f9f9f9}.rv-search-wrapper{display:flex;flex-direction:column}.rv-search-wrapper__form{flex:0}.rv-search-wrapper__form__input{width:100%;color:#a6a6a5;border:1px solid #e5e5e4;padding:7px 10px;font-size:12px;box-sizing:border-box;border-radius:2px;margin:0 0 9px;outline:0}.rv-search-wrapper__contents{flex:1;overflow:auto}.rv-continuous-color-legend{font-size:12px}.rv-continuous-color-legend .rv-gradient{height:4px;border-radius:2px;margin-bottom:5px}.rv-continuous-size-legend{font-size:12px}.rv-continuous-size-legend .rv-bubbles{text-align:justify;overflow:hidden;margin-bottom:5px;width:100%}.rv-continuous-size-legend .rv-bubble{background:#d8d9dc;display:inline-block;vertical-align:bottom}.rv-continuous-size-legend .rv-spacer{display:inline-block;font-size:0;line-height:0;width:100%}.rv-legend-titles{height:16px;position:relative}.rv-legend-titles__left,.rv-legend-titles__right,.rv-legend-titles__center{position:absolute;white-space:nowrap;overflow:hidden}.rv-legend-titles__center{display:block;text-align:center;width:100%}.rv-legend-titles__right{right:0}.rv-radial-chart .rv-xy-plot__series--label{pointer-events:none}<br /><br />/*]]&gt;*/</style></svg>